<svg xmlns="http://www.w3.org/2000/svg" viewBox="0 0 64 64" width="100%" height="100%">
  <g transform="translate(2, 4)">
    <path d="M30 52 C 18 52, 6 44, 6 44 L 6 12 C 6 12, 18 20, 30 20 C 42 20, 54 12, 54 12 L 54 44 C 54 44, 42 52, 30 52 Z" fill="#2A4B51" />
    
    <path d="M30 48 C 20 48, 10 41, 10 41 L 10 16 C 10 16, 20 23, 30 23 C 40 23, 50 16, 50 16 L 50 41 C 50 41, 40 48, 30 48 Z" fill="#FAFAF5" />

    <path d="M38 18 L 44 18 L 44 38 L 41 34 L 38 38 Z" fill="#D4A373" />

    <line x1="30" y1="23" x2="30" y2="48" stroke="#A3B18A" stroke-width="2" stroke-linecap="round"/>
  </g>
</svg>
